<?xml version="1.0" encoding="UTF-8" standalone="no"?>
<svg id="board" xmlns:rdf="http://www.w3.org/1999/02/22-rdf-syntax-ns#" xmlns="http://www.w3.org/2000/svg" xmlns:osb="http://www.openswatchbook.org/uri/2009/osb" height="93.1mm" width="93.1mm" version="1.1" xmlns:cc="http://creativecommons.org/ns#" viewBox="0 0 329.99999 329.99996" xmlns:dc="http://purl.org/dc/elements/1.1/">
 <g id="territoryFields" transform="translate(-35 -437)">
  <rect style="fill-rule:evenodd;stroke:#000;fill:#fff" height="49" width="49" y="453" x="50.5"/>
  <rect style="fill-rule:evenodd;stroke:#000;fill:#fff" height="49" width="49" y="453" x="100"/>
  <rect style="fill-rule:evenodd;stroke:#000;fill:#fff" height="49" width="49" y="453" x="150"/>
  <rect style="fill-rule:evenodd;stroke:#000;fill:#fff" height="49" width="49" y="453" x="200"/>
  <rect style="fill-rule:evenodd;stroke:#000;fill:#fff" height="49" width="49" y="453" x="250"/>
  <rect style="fill-rule:evenodd;stroke:#000;fill:#fff" height="49" width="49" y="453" x="300"/>
  <rect style="fill-rule:evenodd;stroke:#000;fill:#fff" height="49" width="49" y="503" x="50.5"/>
  <rect style="fill-rule:evenodd;stroke:#000;fill:#fff" height="49" width="49" y="503" x="100"/>
  <rect style="fill-rule:evenodd;stroke:#000;fill:#fff" height="49" width="49" y="503" x="150"/>
  <rect style="fill-rule:evenodd;stroke:#000;fill:#fff" height="49" width="49" y="503" x="200"/>
  <rect style="fill-rule:evenodd;stroke:#000;fill:#fff" height="49" width="49" y="503" x="250"/>
  <rect style="fill-rule:evenodd;stroke:#000;fill:#fff" height="49" width="49" y="503" x="300"/>
  <rect style="fill-rule:evenodd;stroke:#000;fill:#fff" height="49" width="49" y="553" x="50.5"/>
  <rect style="fill-rule:evenodd;stroke:#000;fill:#fff" height="49" width="49" y="553" x="100"/>
  <rect style="fill-rule:evenodd;stroke:#000;fill:#fff" height="49" width="49" y="553" x="150"/>
  <rect style="fill-rule:evenodd;stroke:#000;fill:#fff" height="49" width="49" y="553" x="200"/>
  <rect style="fill-rule:evenodd;stroke:#000;fill:#fff" height="49" width="49" y="553" x="250"/>
  <rect style="fill-rule:evenodd;stroke:#000;fill:#fff" height="49" width="49" y="553" x="300"/>
  <rect style="fill-rule:evenodd;stroke:#000;fill:#fff" height="49" width="49" y="603" x="50.5"/>
  <rect style="fill-rule:evenodd;stroke:#000;fill:#fff" height="49" width="49" y="603" x="100"/>
  <rect style="fill-rule:evenodd;stroke:#000;fill:#fff" height="49" width="49" y="603" x="150"/>
  <rect style="fill-rule:evenodd;stroke:#000;fill:#fff" height="49" width="49" y="603" x="200"/>
  <rect style="fill-rule:evenodd;stroke:#000;fill:#fff" height="49" width="49" y="603" x="250"/>
  <rect style="fill-rule:evenodd;stroke:#000;fill:#fff" height="49" width="49" y="603" x="300"/>
  <rect style="fill-rule:evenodd;stroke:#000;fill:#fff" height="49" width="49" y="653" x="50.5"/>
  <rect style="fill-rule:evenodd;stroke:#000;fill:#fff" height="49" width="49" y="653" x="100"/>
  <rect style="fill-rule:evenodd;stroke:#000;fill:#fff" height="49" width="49" y="653" x="150"/>
  <rect style="fill-rule:evenodd;stroke:#000;fill:#fff" height="49" width="49" y="653" x="200"/>
  <rect style="fill-rule:evenodd;stroke:#000;fill:#fff" height="49" width="49" y="653" x="250"/>
  <rect style="fill-rule:evenodd;stroke:#000;fill:#fff" height="49" width="49" y="653" x="300"/>
  <rect style="fill-rule:evenodd;stroke:#000;fill:#fff" height="49" width="49" y="703" x="50.5"/>
  <rect style="fill-rule:evenodd;stroke:#000;fill:#fff" height="49" width="49" y="703" x="100"/>
  <rect style="fill-rule:evenodd;stroke:#000;fill:#fff" height="49" width="49" y="703" x="150"/>
  <rect style="fill-rule:evenodd;stroke:#000;fill:#fff" height="49" width="49" y="703" x="200"/>
  <rect style="fill-rule:evenodd;stroke:#000;fill:#fff" height="49" width="49" y="703" x="250"/>
  <rect style="fill-rule:evenodd;stroke:#000;fill:#fff" height="49" width="49" y="703" x="300"/>
 </g>
 <g id="basesAndTowers" transform="translate(-35 -437)">
  <circle cx="50" cy="452" r="14.5" style="stroke:#000;fill:#ff3"/>
  <circle r="14.5" style="stroke:#000;fill:#0cf" cx="350" cy="452"/>
  <circle r="14.5" style="stroke:#000;fill:#3f6" cx="50" cy="752"/>
  <circle cx="350" cy="752" r="14.5" style="stroke:#000;fill:#f6f"/>
  <circle r="9.5" style="stroke:#000;fill:#fff" cx="100" cy="452"/>
  <circle cx="150" cy="452" r="9.5" style="stroke:#000;fill:#fff"/>
  <circle r="9.5" style="stroke:#000;fill:#fff" cx="200" cy="452"/>
  <circle cx="250" cy="452" r="9.5" style="stroke:#000;fill:#fff"/>
  <circle r="9.5" style="stroke:#000;fill:#fff" cx="300" cy="452"/>
  <circle r="9.5" style="stroke:#000;fill:#fff" cx="50" cy="502"/>
  <circle cx="100" cy="502" r="9.5" style="stroke:#000;fill:#fff"/>
  <circle r="9.5" style="stroke:#000;fill:#fff" cx="150" cy="502"/>
  <circle cx="200" cy="502" r="9.5" style="stroke:#000;fill:#fff"/>
  <circle r="9.5" style="stroke:#000;fill:#fff" cx="250" cy="502"/>
  <circle cx="300" cy="502" r="9.5" style="stroke:#000;fill:#fff"/>
  <circle r="9.5" style="stroke:#000;fill:#fff" cx="350" cy="502"/>
  <circle cx="50" cy="552" r="9.5" style="stroke:#000;fill:#fff"/>
  <circle r="9.5" style="stroke:#000;fill:#fff" cx="100" cy="552"/>
  <circle cx="150" cy="552" r="9.5" style="stroke:#000;fill:#fff"/>
  <circle r="9.5" style="stroke:#000;fill:#fff" cx="200" cy="552"/>
  <circle cx="250" cy="552" r="9.5" style="stroke:#000;fill:#fff"/>
  <circle r="9.5" style="stroke:#000;fill:#fff" cx="300" cy="552"/>
  <circle cx="350" cy="552" r="9.5" style="stroke:#000;fill:#fff"/>
  <circle r="9.5" style="stroke:#000;fill:#fff" cx="50" cy="602"/>
  <circle cx="100" cy="602" r="9.5" style="stroke:#000;fill:#fff"/>
  <circle r="9.5" style="stroke:#000;fill:#fff" cx="150" cy="602"/>
  <circle cx="200" cy="602" r="9.5" style="stroke:#000;fill:#fff"/>
  <circle r="9.5" style="stroke:#000;fill:#fff" cx="250" cy="602"/>
  <circle cx="300" cy="602" r="9.5" style="stroke:#000;fill:#fff"/>
  <circle r="9.5" style="stroke:#000;fill:#fff" cx="350" cy="602"/>
  <circle cx="50" cy="652" r="9.5" style="stroke:#000;fill:#fff"/>
  <circle r="9.5" style="stroke:#000;fill:#fff" cx="100" cy="652"/>
  <circle cx="150" cy="652" r="9.5" style="stroke:#000;fill:#fff"/>
  <circle r="9.5" style="stroke:#000;fill:#fff" cx="200" cy="652"/>
  <circle cx="250" cy="652" r="9.5" style="stroke:#000;fill:#fff"/>
  <circle r="9.5" style="stroke:#000;fill:#fff" cx="300" cy="652"/>
  <circle cx="350" cy="652" r="9.5" style="stroke:#000;fill:#fff"/>
  <circle r="9.5" style="stroke:#000;fill:#fff" cx="50" cy="702"/>
  <circle cx="100" cy="702" r="9.5" style="stroke:#000;fill:#fff"/>
  <circle r="9.5" style="stroke:#000;fill:#fff" cx="150" cy="702"/>
  <circle cx="200" cy="702" r="9.5" style="stroke:#000;fill:#fff"/>
  <circle r="9.5" style="stroke:#000;fill:#fff" cx="250" cy="702"/>
  <circle cx="300" cy="702" r="9.5" style="stroke:#000;fill:#fff"/>
  <circle r="9.5" style="stroke:#000;fill:#fff" cx="350" cy="702"/>
  <circle cx="100" cy="752" r="9.5" style="stroke:#000;fill:#fff"/>
  <circle r="9.5" style="stroke:#000;fill:#fff" cx="150" cy="752"/>
  <circle cx="200" cy="752" r="9.5" style="stroke:#000;fill:#fff"/>
  <circle r="9.5" style="stroke:#000;fill:#fff" cx="250" cy="752"/>
  <circle cx="300" cy="752" r="9.5" style="stroke:#000;fill:#fff"/>
 </g>
</svg>
